<?xml version="1.0" standalone="no"?>
<!DOCTYPE svg PUBLIC "-//W3C//DTD SVG 1.1//EN"
"http://www.w3.org/Graphics/SVG/1.1/DTD/svg11.dtd">

<svg width="296" height="152" view_box="0 0 296 152"
xmlns="http://www.w3.org/2000/svg"
xmlns:link="http://www.w3.org/1999/xlink">\n\n<desc>Généré par Mocodo 2.3.7 le Fri, 18 Jun 2021 09:05:19</desc>

<rect id="frame" x="0" y="0" width="296" height="152" fill="#ffffbf" stroke="none" stroke-width="0"/>

<!-- Association IS PART OF -->
<line x1="149" y1="34" x2="51" y2="34" stroke="#f46d43" stroke-width="2"/>
<text x="98" y="51.0" fill="#1a9850" font-family="Verdana" font-size="12">1,N</text>
<line x1="51" y1="109" x2="51" y2="34" stroke="#f46d43" stroke-width="2"/>
<text x="56.0" y="76" fill="#1a9850" font-family="Verdana" font-size="12">0,1</text>
<g id="association-IS PART OF">
	<path d="M 79 9 a 14 14 90 0 1 14 14 V 34 h -84 V 23 a 14 14 90 0 1 14 -14" fill="#fdae61" stroke="#fdae61" stroke-width="0"/>
	<path d="M 93 34.0 v 11 a 14 14 90 0 1 -14 14 H 23 a 14 14 90 0 1 -14 -14 V 34.0 H 84" fill="#fee08b" stroke="#fee08b" stroke-width="0"/>
	<rect x="9" y="9" width="84" height="50" fill="none" rx="14" stroke="#f46d43" stroke-width="2"/>
	<line x1="9" y1="34" x2="93" y2="34" stroke="#f46d43" stroke-width="1"/>
	<text x="16" y="26.7" fill="#000000" font-family="Verdana" font-size="12">IS PART OF</text>
</g>

<!-- Association WROTE -->
<line x1="51" y1="109" x2="149" y2="109" stroke="#f46d43" stroke-width="2"/>
<text x="79" y="126.0" fill="#1a9850" font-family="Verdana" font-size="12">1,N</text>
<line x1="249" y1="109" x2="149" y2="109" stroke="#f46d43" stroke-width="2"/>
<text x="184" y="126.0" fill="#1a9850" font-family="Verdana" font-size="12">1,N</text>
<g id="association-WROTE">
	<path d="M 165 84 a 14 14 90 0 1 14 14 V 109 h -60 V 98 a 14 14 90 0 1 14 -14" fill="#fdae61" stroke="#fdae61" stroke-width="0"/>
	<path d="M 179 109.0 v 11 a 14 14 90 0 1 -14 14 H 133 a 14 14 90 0 1 -14 -14 V 109.0 H 60" fill="#fee08b" stroke="#fee08b" stroke-width="0"/>
	<rect x="119" y="84" width="60" height="50" fill="none" rx="14" stroke="#f46d43" stroke-width="2"/>
	<line x1="119" y1="109" x2="179" y2="109" stroke="#f46d43" stroke-width="1"/>
	<text x="126" y="101.7" fill="#000000" font-family="Verdana" font-size="12">WROTE</text>
</g>

<!-- Entity SERIE -->
<g id="entity-SERIE">
	<g id="frame-SERIE">
		<rect x="125" y="9" width="48" height="25" fill="#a6d96a" stroke="#a6d96a" stroke-width="0"/>
		<rect x="125" y="34.0" width="48" height="25" fill="#d9ef8b" stroke="#d9ef8b" stroke-width="0"/>
		<rect x="125" y="9" width="48" height="50" fill="none" stroke="#66bd63" stroke-width="2"/>
		<line x1="125" y1="34" x2="173" y2="34" stroke="#66bd63" stroke-width="1"/>
	</g>
	<text x="130" y="26.7" fill="#000000" font-family="Verdana" font-size="12">SERIE</text>
	<text x="130" y="51.8" fill="#000000" font-family="Verdana" font-size="12">label</text>
	<line x1="130" y1="54" x2="159" y2="54" stroke="#000000" stroke-width="1"/>
</g>

<!-- Entity BOOK -->
<g id="entity-BOOK">
	<g id="frame-BOOK">
		<rect x="28" y="84" width="46" height="25" fill="#a6d96a" stroke="#a6d96a" stroke-width="0"/>
		<rect x="28" y="109.0" width="46" height="25" fill="#d9ef8b" stroke="#d9ef8b" stroke-width="0"/>
		<rect x="28" y="84" width="46" height="50" fill="none" stroke="#66bd63" stroke-width="2"/>
		<line x1="28" y1="109" x2="74" y2="109" stroke="#66bd63" stroke-width="1"/>
	</g>
	<text x="33" y="101.7" fill="#000000" font-family="Verdana" font-size="12">BOOK</text>
	<text x="33" y="126.8" fill="#000000" font-family="Verdana" font-size="12">title</text>
	<line x1="33" y1="129" x2="57" y2="129" stroke="#000000" stroke-width="1"/>
</g>

<!-- Entity AUTHOR -->
<g id="entity-AUTHOR">
	<g id="frame-AUTHOR">
		<rect x="211" y="75" width="76" height="25" fill="#a6d96a" stroke="#a6d96a" stroke-width="0"/>
		<rect x="211" y="100.0" width="76" height="43" fill="#d9ef8b" stroke="#d9ef8b" stroke-width="0"/>
		<rect x="211" y="75" width="76" height="68" fill="none" stroke="#66bd63" stroke-width="2"/>
		<line x1="211" y1="100" x2="287" y2="100" stroke="#66bd63" stroke-width="1"/>
	</g>
	<text x="223" y="92.7" fill="#000000" font-family="Verdana" font-size="12">AUTHOR</text>
	<text x="216" y="117.8" fill="#000000" font-family="Verdana" font-size="12">first_name</text>
	<line x1="216" y1="120" x2="282" y2="120" stroke="#000000" stroke-width="1"/>
	<text x="216" y="134.8" fill="#000000" font-family="Verdana" font-size="12">last_name</text>
</g>
</svg>